<svg width="48" height="48" viewBox="0 0 48 48" fill="none" xmlns="http://www.w3.org/2000/svg">
<path d="M26.26 24.28C27.2428 22.9386 27.8347 21.3512 27.9701 19.6939C28.1055 18.0366 27.7792 16.3741 27.0272 14.891C26.2752 13.4079 25.1271 12.1621 23.7101 11.2919C22.2932 10.4216 20.6628 9.96094 19 9.96094C17.3372 9.96094 15.7068 10.4216 14.2899 11.2919C12.8729 12.1621 11.7248 13.4079 10.9728 14.891C10.2208 16.3741 9.89447 18.0366 10.0299 19.6939C10.1653 21.3512 10.7572 22.9386 11.74 24.28C9.5427 24.7898 7.58229 26.0275 6.17718 27.792C4.77207 29.5566 4.0048 31.7443 4 34C4 35.5913 4.63214 37.1174 5.75736 38.2426C6.88258 39.3679 8.4087 40 10 40H28C29.5913 40 31.1174 39.3679 32.2426 38.2426C33.3679 37.1174 34 35.5913 34 34C33.9952 31.7443 33.2279 29.5566 31.8228 27.792C30.4177 26.0275 28.4573 24.7898 26.26 24.28ZM19 12C20.3933 11.9939 21.7566 12.405 22.9143 13.1804C24.0721 13.9557 24.9712 15.0598 25.4961 16.3505C26.021 17.6412 26.1476 19.0595 25.8596 20.4228C25.5716 21.786 24.8821 23.0319 23.88 24C22.8945 24.9583 21.6488 25.6052 20.298 25.8601C18.9473 26.115 17.5515 25.9666 16.2845 25.4334C15.0176 24.9001 13.9357 24.0057 13.1738 22.8617C12.4119 21.7176 12.0036 20.3745 12 19C12 17.1435 12.7375 15.363 14.0503 14.0503C15.363 12.7375 17.1435 12 19 12ZM28 38H10C8.93913 38 7.92172 37.5786 7.17157 36.8284C6.42143 36.0783 6 35.0609 6 34C5.9957 31.9654 6.7668 30.0055 8.1564 28.5193C9.546 27.0331 11.4497 26.1322 13.48 26C15.0455 27.2562 16.9928 27.9409 19 27.9409C21.0072 27.9409 22.9545 27.2562 24.52 26C26.5503 26.1322 28.454 27.0331 29.8436 28.5193C31.2332 30.0055 32.0043 31.9654 32 34C32 35.0609 31.5786 36.0783 30.8284 36.8284C30.0783 37.5786 29.0609 38 28 38Z" fill="#0A1121"/>
<path d="M38.62 20.48C39.525 19.1618 40.0064 17.5989 40 16C39.9911 14.3941 39.4991 12.828 38.5879 11.5056C37.6768 10.1831 36.3888 9.16551 34.8914 8.58511C33.394 8.00472 31.7566 7.88841 30.1922 8.25133C28.6278 8.61425 27.2089 9.43959 26.12 10.62C26.6261 11.0527 27.0944 11.5278 27.52 12.04C28.1828 11.2855 29.0244 10.7095 29.9676 10.3647C30.9109 10.0199 31.9255 9.91743 32.9187 10.0666C33.9118 10.2157 34.8516 10.6118 35.6519 11.2184C36.4523 11.8251 37.0875 12.6229 37.4995 13.5388C37.9114 14.4546 38.0869 15.4593 38.0098 16.4606C37.9327 17.4619 37.6056 18.4278 37.0583 19.2698C36.511 20.1119 35.7611 20.8031 34.8773 21.2801C33.9936 21.757 33.0042 22.0046 32 22C31.2101 22.0043 30.4275 21.8478 29.7 21.54V21.76C29.5678 22.3302 29.3802 22.8862 29.14 23.42C30.0497 23.787 31.0192 23.9836 32 24C33.8692 23.998 35.6768 23.3317 37.1 22.12C38.4736 22.3761 39.7148 23.1037 40.6094 24.1772C41.5039 25.2506 41.9957 26.6026 42 28C42 28.5304 41.7893 29.0391 41.4142 29.4142C41.0391 29.7893 40.5304 30 40 30H35.3C35.5248 30.6522 35.6986 31.3209 35.82 32H40C41.0609 32 42.0783 31.5785 42.8284 30.8284C43.5786 30.0783 44 29.0608 44 28C43.992 26.3438 43.4701 24.731 42.5064 23.384C41.5428 22.037 40.1848 21.0224 38.62 20.48Z" fill="#0A1121"/>
</svg>
