<svg width="20" height="15" viewBox="0 0 20 15" fill="none" xmlns="http://www.w3.org/2000/svg">
<path d="M19 7.5C19.0041 7.06644 18.9173 6.63683 18.745 6.23893C18.5728 5.84104 18.319 5.4837 18 5.19V1.5C18 1.23478 17.8946 0.98043 17.7071 0.792893C17.5196 0.605357 17.2652 0.5 17 0.5H3C2.73478 0.5 2.48043 0.605357 2.29289 0.792893C2.10536 0.98043 2 1.23478 2 1.5V5.19C1.68104 5.4837 1.42724 5.84104 1.25499 6.23893C1.08274 6.63683 0.995871 7.06644 1 7.5C0.734784 7.5 0.48043 7.60536 0.292893 7.79289C0.105357 7.98043 0 8.23478 0 8.5V12.5C0 13.0304 0.210714 13.5391 0.585786 13.9142C0.960859 14.2893 1.46957 14.5 2 14.5H18C18.5304 14.5 19.0391 14.2893 19.4142 13.9142C19.7893 13.5391 20 13.0304 20 12.5V8.5C20 8.23478 19.8946 7.98043 19.7071 7.79289C19.5196 7.60536 19.2652 7.5 19 7.5ZM11.24 6.5C11.3738 6.20937 11.586 5.96181 11.8527 5.78516C12.1195 5.6085 12.4302 5.50975 12.75 5.5H16.25C16.5132 5.49971 16.7719 5.56868 17 5.7C17.2277 5.8271 17.4262 6.00041 17.5829 6.20879C17.7396 6.41717 17.8511 6.65602 17.91 6.91C17.9714 7.10058 18.0018 7.29978 18 7.5H11C10.9999 7.15239 11.0821 6.80969 11.24 6.5ZM3 1.5H17V4.62C16.7581 4.53977 16.5048 4.49924 16.25 4.5H12.75C12.1623 4.51664 11.5949 4.71919 11.1296 5.07855C10.6642 5.43792 10.3247 5.93558 10.16 6.5C10.0551 6.823 10.0011 7.16038 10 7.5C9.99892 7.16038 9.94494 6.823 9.84 6.5C9.67526 5.93558 9.33581 5.43792 8.87044 5.07855C8.40507 4.71919 7.83774 4.51664 7.25 4.5H3.75C3.49516 4.49924 3.24188 4.53977 3 4.62V1.5ZM2.09 6.91C2.14895 6.65602 2.26035 6.41717 2.41707 6.20879C2.57378 6.00041 2.77234 5.8271 3 5.7C3.22812 5.56868 3.48678 5.49971 3.75 5.5H7.25C7.56979 5.50975 7.88053 5.6085 8.14728 5.78516C8.41403 5.96181 8.62622 6.20937 8.76 6.5C8.91788 6.80969 9.00013 7.15239 9 7.5H2C1.99822 7.29978 2.02861 7.10058 2.09 6.91ZM19 12.5C19 12.7652 18.8946 13.0196 18.7071 13.2071C18.5196 13.3946 18.2652 13.5 18 13.5H2C1.73478 13.5 1.48043 13.3946 1.29289 13.2071C1.10536 13.0196 1 12.7652 1 12.5V8.5H19V12.5Z" fill="#0A1121"/>
</svg>
