<svg width="24" height="25" viewBox="0 0 24 25" fill="none" xmlns="http://www.w3.org/2000/svg">
<path d="M12 13.21V17.5H13V11.5H12.29L10.46 13.33L11.17 14.04L12 13.21Z" fill="#0A1121"/>
<path d="M19 5.5H18C18 5.23478 17.8946 4.98043 17.7071 4.79289C17.5196 4.60536 17.2652 4.5 17 4.5C16.7348 4.5 16.4804 4.60536 16.2929 4.79289C16.1054 4.98043 16 5.23478 16 5.5H8C8 5.23478 7.89464 4.98043 7.70711 4.79289C7.51957 4.60536 7.26522 4.5 7 4.5C6.73478 4.5 6.48043 4.60536 6.29289 4.79289C6.10536 4.98043 6 5.23478 6 5.5H5C4.46957 5.5 3.96086 5.71071 3.58579 6.08579C3.21071 6.46086 3 6.96957 3 7.5V18.5C3 19.0304 3.21071 19.5391 3.58579 19.9142C3.96086 20.2893 4.46957 20.5 5 20.5H19C19.5304 20.5 20.0391 20.2893 20.4142 19.9142C20.7893 19.5391 21 19.0304 21 18.5V7.5C21 6.96957 20.7893 6.46086 20.4142 6.08579C20.0391 5.71071 19.5304 5.5 19 5.5ZM20 18.5C20 18.7652 19.8946 19.0196 19.7071 19.2071C19.5196 19.3946 19.2652 19.5 19 19.5H5C4.73478 19.5 4.48043 19.3946 4.29289 19.2071C4.10536 19.0196 4 18.7652 4 18.5V9.5H20V18.5ZM20 8.5H4V7.5C4 7.23478 4.10536 6.98043 4.29289 6.79289C4.48043 6.60536 4.73478 6.5 5 6.5H19C19.2652 6.5 19.5196 6.60536 19.7071 6.79289C19.8946 6.98043 20 7.23478 20 7.5V8.5Z" fill="#0A1121"/>
</svg>
