<svg width="25" height="24" viewBox="0 0 25 24" fill="none" xmlns="http://www.w3.org/2000/svg">
<path d="M12.5 10C13.0523 10 13.5 9.55228 13.5 9C13.5 8.44772 13.0523 8 12.5 8C11.9477 8 11.5 8.44772 11.5 9C11.5 9.55228 11.9477 10 12.5 10Z" fill="#DB3734"/>
<path d="M9.5 12.5C9.5 12.2239 9.27614 12 9 12C8.72386 12 8.5 12.2239 8.5 12.5V17.5C8.5 17.7761 8.72386 18 9 18C9.27614 18 9.5 17.7761 9.5 17.5V12.5Z" fill="#DB3734"/>
<path d="M16.5 12.5C16.5 12.2239 16.2761 12 16 12C15.7239 12 15.5 12.2239 15.5 12.5V17.5C15.5 17.7761 15.7239 18 16 18C16.2761 18 16.5 17.7761 16.5 17.5V12.5Z" fill="#DB3734"/>
<path d="M13 12.5C13 12.2239 12.7761 12 12.5 12C12.2239 12 12 12.2239 12 12.5V17.5C12 17.7761 12.2239 18 12.5 18C12.7761 18 13 17.7761 13 17.5V12.5Z" fill="#DB3734"/>
<path d="M22.39 19.55L21.39 17.55C21.3069 17.3851 21.1798 17.2464 21.0227 17.1493C20.8656 17.0522 20.6847 17.0006 20.5 17H19.5V13H20.5C20.6974 12.999 20.8901 12.9396 21.0539 12.8293C21.2176 12.7189 21.345 12.5626 21.42 12.38C21.4966 12.1979 21.5175 11.9972 21.4801 11.8032C21.4427 11.6092 21.3488 11.4306 21.21 11.29L13.21 3.29C13.117 3.19627 13.0064 3.12188 12.8846 3.07111C12.7627 3.02034 12.632 2.9942 12.5 2.9942C12.368 2.9942 12.2373 3.02034 12.1154 3.07111C11.9936 3.12188 11.883 3.19627 11.79 3.29L3.79 11.29C3.65124 11.4306 3.55724 11.6092 3.51987 11.8032C3.48249 11.9972 3.50342 12.1979 3.58 12.38C3.65502 12.5626 3.78241 12.7189 3.94613 12.8293C4.10985 12.9396 4.30257 12.999 4.5 13H5.5V17H4.5C4.31533 17.0006 4.13442 17.0522 3.97733 17.1493C3.82024 17.2464 3.69309 17.3851 3.61 17.55L2.61 19.55C2.53329 19.7022 2.49676 19.8715 2.5039 20.0419C2.51103 20.2122 2.56159 20.3778 2.65076 20.5231C2.73993 20.6684 2.86476 20.7885 3.01339 20.8719C3.16203 20.9554 3.32953 20.9995 3.5 21H21.5C21.6705 20.9995 21.838 20.9554 21.9866 20.8719C22.1352 20.7885 22.2601 20.6684 22.3492 20.5231C22.4384 20.3778 22.489 20.2122 22.4961 20.0419C22.5032 19.8715 22.4667 19.7022 22.39 19.55ZM3.5 20L4.5 18H6.5V12H4.5L12.5 4L20.5 12H18.5V18H20.5L21.5 20H3.5Z" fill="#DB3734"/>
</svg>
