<svg width="25" height="24" viewBox="0 0 25 24" fill="none" xmlns="http://www.w3.org/2000/svg">
<path d="M12.5 5C11.7089 5 10.9355 5.2346 10.2777 5.67412C9.61993 6.11365 9.10723 6.73836 8.80448 7.46927C8.50173 8.20017 8.42252 9.00444 8.57686 9.78036C8.7312 10.5563 9.11216 11.269 9.67157 11.8284C10.231 12.3878 10.9437 12.7688 11.7196 12.9231C12.4956 13.0775 13.2998 12.9983 14.0307 12.6955C14.7616 12.3928 15.3864 11.8801 15.8259 11.2223C16.2654 10.5645 16.5 9.79113 16.5 9C16.5 7.93913 16.0786 6.92172 15.3284 6.17157C14.5783 5.42143 13.5609 5 12.5 5ZM12.5 12C11.9067 12 11.3266 11.8241 10.8333 11.4944C10.3399 11.1648 9.95543 10.6962 9.72836 10.1481C9.5013 9.59987 9.44189 8.99667 9.55765 8.41473C9.6734 7.83279 9.95912 7.29824 10.3787 6.87868C10.7982 6.45912 11.3328 6.1734 11.9147 6.05764C12.4967 5.94189 13.0999 6.0013 13.6481 6.22836C14.1962 6.45542 14.6648 6.83994 14.9944 7.33329C15.3241 7.82664 15.5 8.40666 15.5 9C15.5 9.79565 15.1839 10.5587 14.6213 11.1213C14.0587 11.6839 13.2957 12 12.5 12Z" fill="#1391D2"/>
<path d="M18.5 8.23001C18.3122 6.78474 17.6049 5.45722 16.5099 4.49534C15.415 3.53346 14.0074 3.00299 12.55 3.00299C11.0926 3.00299 9.68499 3.53346 8.59007 4.49534C7.49515 5.45722 6.78776 6.78474 6.6 8.23001C6.55133 8.48445 6.51794 8.74158 6.5 9.00001C6.49669 9.71415 6.62553 10.4227 6.88 11.09L7.5 12.28L11.65 20.49C11.7372 20.6439 11.8637 20.7719 12.0165 20.861C12.1694 20.95 12.3431 20.997 12.52 20.997C12.6969 20.997 12.8706 20.95 13.0235 20.861C13.1763 20.7719 13.3028 20.6439 13.39 20.49L17.5 12.28L18.1 11.09C18.3613 10.424 18.4969 9.71541 18.5 9.00001C18.5152 8.74357 18.5152 8.48645 18.5 8.23001ZM12.5 20L7.8 10.69C7.59864 10.1494 7.49699 9.57685 7.5 9.00001C7.486 8.78691 7.486 8.57311 7.5 8.36001C7.6536 7.15298 8.24208 6.04338 9.15515 5.23914C10.0682 4.43489 11.2432 3.9912 12.46 3.9912C13.6768 3.9912 14.8518 4.43489 15.7648 5.23914C16.6779 6.04338 17.2664 7.15298 17.42 8.36001C17.46 8.57146 17.4868 8.78521 17.5 9.00001C17.503 9.57685 17.4014 10.1494 17.2 10.69L12.5 20Z" fill="#1391D2"/>
</svg>
