<svg width="24" height="24" viewBox="0 0 24 24" fill="none" xmlns="http://www.w3.org/2000/svg">
<path d="M21 21L15 15M10 3C8.61553 3 7.26216 3.41054 6.11101 4.17971C4.95987 4.94888 4.06266 6.04213 3.53285 7.32122C3.00303 8.6003 2.86441 10.0078 3.13451 11.3656C3.4046 12.7235 4.07129 13.9708 5.05026 14.9497C6.02922 15.9287 7.2765 16.5954 8.63437 16.8655C9.99224 17.1356 11.3997 16.997 12.6788 16.4672C13.9579 15.9373 15.0511 15.0401 15.8203 13.889C16.5895 12.7378 17 11.3845 17 10C17 8.14348 16.2625 6.36301 14.9497 5.05025C13.637 3.7375 11.8565 3 10 3Z" stroke="#0A1121" stroke-width="2" stroke-miterlimit="10" stroke-linecap="round"/>
</svg>
